# xmcd
#
# Track frame offsets: 
#        150
#        63136
#        102137
#        183697
#        289241
#
# Disc length: 4484 seconds
#
# Revision: 1
# Processed by: cddbd v1.5.2PL0 Copyright (c) Steve Scherf et al.
# Submitted via: ExactAudioCopy v0.99pb5
#
DISCID=43118205
DTITLE=Heinz-Peter Röhr - Erholung beginnt im Kopf
DYEAR=2009
DGENRE=Meditation
TTITLE0=Anleitung
TTITLE1=Handarbeit
TTITLE2=Kopfarbeit
TTITLE3=Die grosse Körperreise
TTITLE4=Meditation in den lichtgefüllten Raum
EXTD=
EXTT0=
EXTT1=
EXTT2=
EXTT3=
EXTT4=
PLAYORDER=
